<svg width="30" height="30" viewBox="0 0 30 30" fill="none" xmlns="http://www.w3.org/2000/svg">
<path d="M0.833496 3.66634C0.833496 2.10153 2.10202 0.833008 3.66683 0.833008C5.23164 0.833008 6.50016 2.10153 6.50016 3.66634C6.50016 4.85541 5.76769 5.87341 4.72933 6.29372V13.9372H13.9377V6.29372C12.8992 5.87341 12.1668 4.85541 12.1668 3.66634C12.1668 2.10153 13.4353 0.833008 15.0002 0.833008C16.565 0.833008 17.8335 2.10153 17.8335 3.66634C17.8335 4.85541 17.1011 5.87341 16.0627 6.29372V13.9372H20.6668C22.0325 13.9372 22.9499 13.9349 23.6342 13.843C24.288 13.755 24.5678 13.6031 24.7524 13.4185C24.9369 13.2339 25.0888 12.9541 25.1768 12.3004C25.2687 11.6161 25.271 10.6987 25.271 9.33301V6.29372C24.2326 5.87341 23.5002 4.85541 23.5002 3.66634C23.5002 2.10153 24.7686 0.833008 26.3335 0.833008C27.8983 0.833008 29.1668 2.10153 29.1668 3.66634C29.1668 4.85541 28.4344 5.87341 27.396 6.29372V9.40666C27.396 10.6795 27.3961 11.7409 27.2828 12.5835C27.1632 13.4729 26.9002 14.2759 26.2549 14.921C25.6097 15.5663 24.8068 15.8294 23.9174 15.949C23.0747 16.0623 22.0134 16.0622 20.7405 16.0622H16.0627V23.7057C17.1011 24.126 17.8335 25.144 17.8335 26.333C17.8335 27.8979 16.565 29.1663 15.0002 29.1663C13.4353 29.1663 12.1668 27.8979 12.1668 26.333C12.1668 25.144 12.8992 24.126 13.9377 23.7057V16.0622H4.72933V23.7057C5.76769 24.126 6.50016 25.144 6.50016 26.333C6.50016 27.8979 5.23164 29.1663 3.66683 29.1663C2.10202 29.1663 0.833496 27.8979 0.833496 26.333C0.833496 25.144 1.56597 24.126 2.60433 23.7057V6.29372C1.56597 5.87341 0.833496 4.85541 0.833496 3.66634Z" fill="black"/>
</svg>
